<svg id="Слой_1" data-name="Слой 1" xmlns="http://www.w3.org/2000/svg" viewBox="0 0 70.54 70.78"><defs><style>.cls-1{fill:#1f1f1f;}.cls-1,.cls-2{fill-rule:evenodd;}.cls-2{fill:#ffe265;}.cls-3{fill:#fff;}</style></defs><path class="cls-1" d="M35.27,0A35.39,35.39,0,1,0,70.54,35.39,35.33,35.33,0,0,0,35.27,0Zm0,2.09A33.24,33.24,0,0,1,66.65,24H3.86A33.27,33.27,0,0,1,35.26,2.09Zm0,66.58a33.25,33.25,0,0,1-31.78-23H32.09A27.06,27.06,0,0,0,35.27,41a27.58,27.58,0,0,0,3.17,4.69H67.05A33.22,33.22,0,0,1,35.28,68.67Z"/><path class="cls-2" d="M67.05,45.67a33.45,33.45,0,0,1-63.55,0H32.09A27.06,27.06,0,0,0,35.27,41a27.58,27.58,0,0,0,3.17,4.69Z"/><path class="cls-2" d="M66.65,24H3.86a33.46,33.46,0,0,1,62.79,0Z"/><path class="cls-3" d="M22.71,28.93l-3.32,3.33-3.31-3.33a1.53,1.53,0,0,0-1-.41A1.5,1.5,0,0,0,14,31l3.32,3.33L14,37.7a1.49,1.49,0,0,0,0,2.07,1.42,1.42,0,0,0,1,.44,1.52,1.52,0,0,0,1-.4l3.31-3.33,3.32,3.33a1.6,1.6,0,0,0,.49.36,1.44,1.44,0,0,0,.58.13,1.5,1.5,0,0,0,.59-.1,1.43,1.43,0,0,0,.5-.34,1.29,1.29,0,0,0,.33-.5,1.34,1.34,0,0,0,.1-.59,1.45,1.45,0,0,0-.13-.59,1.55,1.55,0,0,0-.36-.48L21.5,34.37,24.82,31a1.54,1.54,0,0,0,.36-1,1.51,1.51,0,0,0-.44-1,1.48,1.48,0,0,0-2-.08Z"/><path class="cls-3" d="M49.78,42.16a7.72,7.72,0,1,1,5.44-2.26A7.7,7.7,0,0,1,49.78,42.16Zm0-12.19a4.44,4.44,0,0,0-2.47.76,4.46,4.46,0,0,0-1.89,4.59,4.39,4.39,0,0,0,1.22,2.28,4.41,4.41,0,0,0,4.85,1,4.4,4.4,0,0,0,2-1.64,4.49,4.49,0,0,0,.75-2.48,4.4,4.4,0,0,0-1.3-3.17A4.53,4.53,0,0,0,49.78,30Z"/></svg>